<svg xmlns="http://www.w3.org/2000/svg" xmlns:xlink="http://www.w3.org/1999/xlink" contentStyleType="text/css" data-diagram-type="CLASS" height="1434px" preserveAspectRatio="none" style="width:2483px;height:1434px;background:#FFFFFF;" version="1.1" viewBox="0 0 2483 1434" width="2483px" zoomAndPan="magnify"><?plantuml 1.2026.6?><defs/><g><g class="title" data-source-line="244"><text fill="#000000" font-family="sans-serif" font-size="14" font-weight="700" lengthAdjust="spacing" textLength="483.7793" x="996.377" y="22.9951">Diagrama de Classes - Sistema de Or&#231;amento de Aluguel R.M</text><text fill="#000000" font-family="sans-serif" font-size="14" font-weight="700" lengthAdjust="spacing" textLength="346.1924" x="1065.1704" y="39.292">Imobili&#225;ria R.M - Modelagem Est&#225;tica (POO)</text></g><!--cluster Modelo de Dom?nio--><g class="cluster" data-qualified-name="Modelo de Dom.nio" data-source-line="21" id="ent0001"><path d="M859.5,705.5938 L1012.2578,705.5938 A3.75,3.75 0 0 1 1014.7578,708.0938 L1021.7578,727.8906 L2139.5,727.8906 A2.5,2.5 0 0 1 2142,730.3906 L2142,1269.0938 A2.5,2.5 0 0 1 2139.5,1271.5938 L859.5,1271.5938 A2.5,2.5 0 0 1 857,1269.0938 L857,708.0938 A2.5,2.5 0 0 1 859.5,705.5938" fill="#E8E8E8" style="stroke:#000000;stroke-width:1.5;"/><line style="stroke:#000000;stroke-width:1.5;" x1="857" x2="1021.7578" y1="727.8906" y2="727.8906"/><text fill="#000000" font-family="sans-serif" font-size="14" font-weight="700" lengthAdjust="spacing" textLength="151.7578" x="861" y="720.5889">Modelo de Dom&#237;nio</text></g><!--cluster Entidades de Neg?cio--><g class="cluster" data-qualified-name="Entidades de Neg.cio" data-source-line="95" id="ent0007"><path d="M8.5,59.5938 L180.6719,59.5938 A3.75,3.75 0 0 1 183.1719,62.0938 L190.1719,81.8906 L830.5,81.8906 A2.5,2.5 0 0 1 833,84.3906 L833,1005.5938 A2.5,2.5 0 0 1 830.5,1008.0938 L8.5,1008.0938 A2.5,2.5 0 0 1 6,1005.5938 L6,62.0938 A2.5,2.5 0 0 1 8.5,59.5938" fill="#E8E8E8" style="stroke:#000000;stroke-width:1.5;"/><line style="stroke:#000000;stroke-width:1.5;" x1="6" x2="190.1719" y1="81.8906" y2="81.8906"/><text fill="#000000" font-family="sans-serif" font-size="14" font-weight="700" lengthAdjust="spacing" textLength="171.1719" x="10" y="74.5889">Entidades de Neg&#243;cio</text></g><!--class Calculavel--><g class="entity" data-qualified-name="Modelo de Dom.nio.Calculavel" data-source-line="26" id="ent0002"><rect fill="#FEFECE" height="64.2969" rx="2.5" ry="2.5" style="stroke:#A80036;stroke-width:0.5;" width="130.2344" x="873" y="1142.5938"/><ellipse cx="899.7734" cy="1158.5938" fill="#B4A7E5" rx="11" ry="11" style="stroke:#181818;stroke-width:1;"/><path d="M895.6953,1154.3594 L895.6953,1152.2031 L903.0859,1152.2031 L903.0859,1154.3594 L900.6171,1154.3594 L900.6171,1162.4375 L903.0859,1162.4375 L903.0859,1164.5938 L895.6953,1164.5938 L895.6953,1162.4375 L898.164,1162.4375 L898.164,1154.3594 L895.6953,1154.3594 Z " fill="#000000"/><text fill="#333333" font-family="sans-serif" font-size="14" font-style="italic" lengthAdjust="spacing" textLength="72.0713" x="916.3897" y="1163.4404">Calculavel</text><line style="stroke:#A80036;stroke-width:0.5;" x1="874" x2="1002.2344" y1="1174.5938" y2="1174.5938"/><line style="stroke:#A80036;stroke-width:0.5;" x1="874" x2="1002.2344" y1="1182.5938" y2="1182.5938"/><text fill="#000000" font-family="sans-serif" font-size="14" lengthAdjust="spacing" textLength="118.2344" x="879" y="1199.5889">+calcular(): float</text></g><!--class Imovel--><g class="entity" data-qualified-name="Modelo de Dom.nio.Imovel" data-source-line="33" id="ent0003"><rect fill="#FEFECE" height="276.1563" rx="2.5" ry="2.5" style="stroke:#A80036;stroke-width:0.5;" width="481.1025" x="1128.5" y="740.5938"/><ellipse cx="1341.2412" cy="756.5938" fill="#A9DCDF" rx="11" ry="11" style="stroke:#181818;stroke-width:1;"/><path d="M1341.3506,751.9375 L1340.1943,757.0156 L1342.5225,757.0156 L1341.3506,751.9375 Z M1339.8662,749.7031 L1342.8506,749.7031 L1346.21,762.0938 L1343.7568,762.0938 L1342.9912,759.0313 L1339.71,759.0313 L1338.96,762.0938 L1336.5225,762.0938 L1339.8662,749.7031 Z " fill="#000000"/><text fill="#333333" font-family="sans-serif" font-size="14" font-style="italic" lengthAdjust="spacing" textLength="47.1201" x="1361.7412" y="761.4404">Imovel</text><line style="stroke:#A80036;stroke-width:0.5;" x1="1129.5" x2="1608.6025" y1="772.5938" y2="772.5938"/><text fill="#000000" font-family="sans-serif" font-size="14" lengthAdjust="spacing" textLength="45.2471" x="1134.5" y="789.5889">-id: int</text><text fill="#000000" font-family="sans-serif" font-size="14" lengthAdjust="spacing" textLength="59.5889" x="1134.5" y="805.8857">-tipo: str</text><text fill="#000000" font-family="sans-serif" font-size="14" lengthAdjust="spacing" textLength="121.1191" x="1134.5" y="822.1826">-valor_base: float</text><text fill="#000000" font-family="sans-serif" font-size="14" lengthAdjust="spacing" textLength="172.4707" x="1134.5" y="838.4795">-quantidade_quartos: int</text><text fill="#000000" font-family="sans-serif" font-size="14" lengthAdjust="spacing" textLength="160.6514" x="1134.5" y="854.7764">-quantidade_vagas: int</text><line style="stroke:#A80036;stroke-width:1;" x1="1129.5" x2="1608.6025" y1="862.0781" y2="862.0781"/><text fill="#000000" font-family="sans-serif" font-size="14" lengthAdjust="spacing" textLength="469.1025" x="1134.5" y="879.0732">+__init__(id: int, tipo: str, valor_base: float, quartos: int, vagas: int)</text><text fill="#000000" font-family="sans-serif" font-size="14" font-style="italic" lengthAdjust="spacing" textLength="176.8389" x="1134.5" y="895.3701">+calcular_aluguel(): float</text><text fill="#000000" font-family="sans-serif" font-size="14" font-style="italic" lengthAdjust="spacing" textLength="166.8584" x="1134.5" y="911.667">+calcular_vagas(): float</text><text fill="#000000" font-family="sans-serif" font-size="14" font-style="italic" lengthAdjust="spacing" textLength="220.4111" x="1134.5" y="927.9639">+pode_ter_quarto_extra(): bool</text><text fill="#000000" font-family="sans-serif" font-size="14" lengthAdjust="spacing" textLength="92.8389" x="1134.5" y="944.2607">+get_id(): int</text><text fill="#000000" font-family="sans-serif" font-size="14" lengthAdjust="spacing" textLength="107.1807" x="1134.5" y="960.5576">+get_tipo(): str</text><text fill="#000000" font-family="sans-serif" font-size="14" lengthAdjust="spacing" textLength="168.7109" x="1134.5" y="976.8545">+get_valor_base(): float</text><text fill="#000000" font-family="sans-serif" font-size="14" lengthAdjust="spacing" textLength="220.0625" x="1134.5" y="993.1514">+get_quantidade_quartos(): int</text><text fill="#000000" font-family="sans-serif" font-size="14" lengthAdjust="spacing" textLength="208.2432" x="1134.5" y="1009.4482">+get_quantidade_vagas(): int</text></g><!--class Apartamento--><g class="entity" data-qualified-name="Modelo de Dom.nio.Apartamento" data-source-line="54" id="ent0004"><rect fill="#FEFECE" height="162.0781" rx="2.5" ry="2.5" style="stroke:#A80036;stroke-width:0.5;" width="351.7734" x="1038" y="1093.5938"/><ellipse cx="1163.6138" cy="1109.5938" fill="#ADD1B2" rx="11" ry="11" style="stroke:#181818;stroke-width:1;"/><path d="M1166.5825,1115.2344 Q1166.0044,1115.5313 1165.3638,1115.6719 Q1164.7231,1115.8281 1164.02,1115.8281 Q1161.52,1115.8281 1160.1919,1114.1875 Q1158.8794,1112.5313 1158.8794,1109.4063 Q1158.8794,1106.2813 1160.1919,1104.625 Q1161.52,1102.9688 1164.02,1102.9688 Q1164.7231,1102.9688 1165.3638,1103.125 Q1166.02,1103.2813 1166.5825,1103.5781 L1166.5825,1106.2969 Q1165.9575,1105.7188 1165.3638,1105.4531 Q1164.77,1105.1719 1164.145,1105.1719 Q1162.8013,1105.1719 1162.1138,1106.25 Q1161.4263,1107.3125 1161.4263,1109.4063 Q1161.4263,1111.5 1162.1138,1112.5781 Q1162.8013,1113.6406 1164.145,1113.6406 Q1164.77,1113.6406 1165.3638,1113.375 Q1165.9575,1113.0938 1166.5825,1112.5156 L1166.5825,1115.2344 Z " fill="#000000"/><text fill="#333333" font-family="sans-serif" font-size="14" lengthAdjust="spacing" textLength="92.0459" x="1184.1138" y="1114.4404">Apartamento</text><line style="stroke:#A80036;stroke-width:0.5;" x1="1039" x2="1388.7734" y1="1125.5938" y2="1125.5938"/><text fill="#000000" font-family="sans-serif" font-size="14" lengthAdjust="spacing" textLength="283.4248" x="1044" y="1142.5889">-VALOR_QUARTO_EXTRA: float = 200.00</text><text fill="#000000" font-family="sans-serif" font-size="14" lengthAdjust="spacing" textLength="209.5693" x="1044" y="1158.8857">-VALOR_VAGA: float = 300.00</text><line style="stroke:#A80036;stroke-width:1;" x1="1039" x2="1388.7734" y1="1166.1875" y2="1166.1875"/><text fill="#000000" font-family="sans-serif" font-size="14" lengthAdjust="spacing" textLength="339.7734" x="1044" y="1183.1826">+__init__(id: int, quartos: int = 1, vagas: int = 0)</text><text fill="#000000" font-family="sans-serif" font-size="14" lengthAdjust="spacing" textLength="176.8389" x="1044" y="1199.4795">+calcular_aluguel(): float</text><text fill="#000000" font-family="sans-serif" font-size="14" lengthAdjust="spacing" textLength="166.8584" x="1044" y="1215.7764">+calcular_vagas(): float</text><text fill="#000000" font-family="sans-serif" font-size="14" lengthAdjust="spacing" textLength="220.4111" x="1044" y="1232.0732">+pode_ter_quarto_extra(): bool</text><text fill="#000000" font-family="sans-serif" font-size="14" lengthAdjust="spacing" textLength="338.4609" x="1044" y="1248.3701">+calcular_desconto(possui_criancas: bool): float</text></g><!--class Casa--><g class="entity" data-qualified-name="Modelo de Dom.nio.Casa" data-source-line="68" id="ent0005"><rect fill="#FEFECE" height="145.7813" rx="2.5" ry="2.5" style="stroke:#A80036;stroke-width:0.5;" width="351.7734" x="1425" y="1101.5938"/><ellipse cx="1579.5229" cy="1117.5938" fill="#ADD1B2" rx="11" ry="11" style="stroke:#181818;stroke-width:1;"/><path d="M1582.4917,1123.2344 Q1581.9136,1123.5313 1581.2729,1123.6719 Q1580.6323,1123.8281 1579.9292,1123.8281 Q1577.4292,1123.8281 1576.1011,1122.1875 Q1574.7886,1120.5313 1574.7886,1117.4063 Q1574.7886,1114.2813 1576.1011,1112.625 Q1577.4292,1110.9688 1579.9292,1110.9688 Q1580.6323,1110.9688 1581.2729,1111.125 Q1581.9292,1111.2813 1582.4917,1111.5781 L1582.4917,1114.2969 Q1581.8667,1113.7188 1581.2729,1113.4531 Q1580.6792,1113.1719 1580.0542,1113.1719 Q1578.7104,1113.1719 1578.0229,1114.25 Q1577.3354,1115.3125 1577.3354,1117.4063 Q1577.3354,1119.5 1578.0229,1120.5781 Q1578.7104,1121.6406 1580.0542,1121.6406 Q1580.6792,1121.6406 1581.2729,1121.375 Q1581.8667,1121.0938 1582.4917,1120.5156 L1582.4917,1123.2344 Z " fill="#000000"/><text fill="#333333" font-family="sans-serif" font-size="14" lengthAdjust="spacing" textLength="34.2275" x="1600.0229" y="1122.4404">Casa</text><line style="stroke:#A80036;stroke-width:0.5;" x1="1426" x2="1775.7734" y1="1133.5938" y2="1133.5938"/><text fill="#000000" font-family="sans-serif" font-size="14" lengthAdjust="spacing" textLength="283.4248" x="1431" y="1150.5889">-VALOR_QUARTO_EXTRA: float = 250.00</text><text fill="#000000" font-family="sans-serif" font-size="14" lengthAdjust="spacing" textLength="209.5693" x="1431" y="1166.8857">-VALOR_VAGA: float = 300.00</text><line style="stroke:#A80036;stroke-width:1;" x1="1426" x2="1775.7734" y1="1174.1875" y2="1174.1875"/><text fill="#000000" font-family="sans-serif" font-size="14" lengthAdjust="spacing" textLength="339.7734" x="1431" y="1191.1826">+__init__(id: int, quartos: int = 1, vagas: int = 0)</text><text fill="#000000" font-family="sans-serif" font-size="14" lengthAdjust="spacing" textLength="176.8389" x="1431" y="1207.4795">+calcular_aluguel(): float</text><text fill="#000000" font-family="sans-serif" font-size="14" lengthAdjust="spacing" textLength="166.8584" x="1431" y="1223.7764">+calcular_vagas(): float</text><text fill="#000000" font-family="sans-serif" font-size="14" lengthAdjust="spacing" textLength="220.4111" x="1431" y="1240.0732">+pode_ter_quarto_extra(): bool</text></g><!--class Estudio--><g class="entity" data-qualified-name="Modelo de Dom.nio.Estudio" data-source-line="81" id="ent0006"><rect fill="#FEFECE" height="145.7813" rx="2.5" ry="2.5" style="stroke:#A80036;stroke-width:0.5;" width="313" x="1812.5" y="1101.5938"/><ellipse cx="1938.8281" cy="1117.5938" fill="#ADD1B2" rx="11" ry="11" style="stroke:#181818;stroke-width:1;"/><path d="M1941.7969,1123.2344 Q1941.2188,1123.5313 1940.5781,1123.6719 Q1939.9375,1123.8281 1939.2344,1123.8281 Q1936.7344,1123.8281 1935.4063,1122.1875 Q1934.0938,1120.5313 1934.0938,1117.4063 Q1934.0938,1114.2813 1935.4063,1112.625 Q1936.7344,1110.9688 1939.2344,1110.9688 Q1939.9375,1110.9688 1940.5781,1111.125 Q1941.2344,1111.2813 1941.7969,1111.5781 L1941.7969,1114.2969 Q1941.1719,1113.7188 1940.5781,1113.4531 Q1939.9844,1113.1719 1939.3594,1113.1719 Q1938.0156,1113.1719 1937.3281,1114.25 Q1936.6406,1115.3125 1936.6406,1117.4063 Q1936.6406,1119.5 1937.3281,1120.5781 Q1938.0156,1121.6406 1939.3594,1121.6406 Q1939.9844,1121.6406 1940.5781,1121.375 Q1941.1719,1121.0938 1941.7969,1120.5156 L1941.7969,1123.2344 Z " fill="#000000"/><text fill="#333333" font-family="sans-serif" font-size="14" lengthAdjust="spacing" textLength="51.8438" x="1959.3281" y="1122.4404">Estudio</text><line style="stroke:#A80036;stroke-width:0.5;" x1="1813.5" x2="2124.5" y1="1133.5938" y2="1133.5938"/><text fill="#000000" font-family="sans-serif" font-size="14" lengthAdjust="spacing" textLength="301" x="1818.5" y="1150.5889">-VALOR_VAGAS_PRIMEIRAS: float = 250.00</text><text fill="#000000" font-family="sans-serif" font-size="14" lengthAdjust="spacing" textLength="284.9219" x="1818.5" y="1166.8857">-VALOR_VAGA_ADICIONAL: float = 60.00</text><line style="stroke:#A80036;stroke-width:1;" x1="1813.5" x2="2124.5" y1="1174.1875" y2="1174.1875"/><text fill="#000000" font-family="sans-serif" font-size="14" lengthAdjust="spacing" textLength="220.4727" x="1818.5" y="1191.1826">+__init__(id: int, vagas: int = 0)</text><text fill="#000000" font-family="sans-serif" font-size="14" lengthAdjust="spacing" textLength="176.8389" x="1818.5" y="1207.4795">+calcular_aluguel(): float</text><text fill="#000000" font-family="sans-serif" font-size="14" lengthAdjust="spacing" textLength="166.8584" x="1818.5" y="1223.7764">+calcular_vagas(): float</text><text fill="#000000" font-family="sans-serif" font-size="14" lengthAdjust="spacing" textLength="220.4111" x="1818.5" y="1240.0732">+pode_ter_quarto_extra(): bool</text></g><!--class Cliente--><g class="entity" data-qualified-name="Entidades de Neg.cio.Cliente" data-source-line="100" id="ent0008"><rect fill="#FEFECE" height="178.375" rx="2.5" ry="2.5" style="stroke:#A80036;stroke-width:0.5;" width="416.4893" x="401" y="789.5938"/><ellipse cx="580.4229" cy="805.5938" fill="#ADD1B2" rx="11" ry="11" style="stroke:#181818;stroke-width:1;"/><path d="M583.3916,811.2344 Q582.8135,811.5313 582.1729,811.6719 Q581.5322,811.8281 580.8291,811.8281 Q578.3291,811.8281 577.001,810.1875 Q575.6885,808.5313 575.6885,805.4063 Q575.6885,802.2813 577.001,800.625 Q578.3291,798.9688 580.8291,798.9688 Q581.5322,798.9688 582.1729,799.125 Q582.8291,799.2813 583.3916,799.5781 L583.3916,802.2969 Q582.7666,801.7188 582.1729,801.4531 Q581.5791,801.1719 580.9541,801.1719 Q579.6104,801.1719 578.9229,802.25 Q578.2354,803.3125 578.2354,805.4063 Q578.2354,807.5 578.9229,808.5781 Q579.6104,809.6406 580.9541,809.6406 Q581.5791,809.6406 582.1729,809.375 Q582.7666,809.0938 583.3916,808.5156 L583.3916,811.2344 Z " fill="#000000"/><text fill="#333333" font-family="sans-serif" font-size="14" lengthAdjust="spacing" textLength="49.1436" x="600.9229" y="810.4404">Cliente</text><line style="stroke:#A80036;stroke-width:0.5;" x1="402" x2="816.4893" y1="821.5938" y2="821.5938"/><text fill="#000000" font-family="sans-serif" font-size="14" lengthAdjust="spacing" textLength="45.2471" x="407" y="838.5889">-id: int</text><text fill="#000000" font-family="sans-serif" font-size="14" lengthAdjust="spacing" textLength="72.4473" x="407" y="854.8857">-nome: str</text><text fill="#000000" font-family="sans-serif" font-size="14" lengthAdjust="spacing" textLength="154.2939" x="407" y="871.1826">-possui_criancas: bool</text><line style="stroke:#A80036;stroke-width:1;" x1="402" x2="816.4893" y1="878.4844" y2="878.4844"/><text fill="#000000" font-family="sans-serif" font-size="14" lengthAdjust="spacing" textLength="404.4893" x="407" y="895.4795">+__init__(id: int, nome: str, possui_criancas: bool = False)</text><text fill="#000000" font-family="sans-serif" font-size="14" lengthAdjust="spacing" textLength="211.8799" x="407" y="911.7764">+eh_elegivel_desconto(): bool</text><text fill="#000000" font-family="sans-serif" font-size="14" lengthAdjust="spacing" textLength="92.8389" x="407" y="928.0732">+get_id(): int</text><text fill="#000000" font-family="sans-serif" font-size="14" lengthAdjust="spacing" textLength="120.0391" x="407" y="944.3701">+get_nome(): str</text><text fill="#000000" font-family="sans-serif" font-size="14" lengthAdjust="spacing" textLength="201.8857" x="407" y="960.667">+get_possui_criancas(): bool</text></g><!--class Orcamento--><g class="entity" data-qualified-name="Entidades de Neg.cio.Orcamento" data-source-line="115" id="ent0009"><rect fill="#FEFECE" height="308.75" rx="2.5" ry="2.5" style="stroke:#A80036;stroke-width:0.5;" width="446.9502" x="367.5" y="333.5938"/><ellipse cx="547.6099" cy="349.5938" fill="#ADD1B2" rx="11" ry="11" style="stroke:#181818;stroke-width:1;"/><path d="M550.5786,355.2344 Q550.0005,355.5313 549.3599,355.6719 Q548.7192,355.8281 548.0161,355.8281 Q545.5161,355.8281 544.188,354.1875 Q542.8755,352.5313 542.8755,349.4063 Q542.8755,346.2813 544.188,344.625 Q545.5161,342.9688 548.0161,342.9688 Q548.7192,342.9688 549.3599,343.125 Q550.0161,343.2813 550.5786,343.5781 L550.5786,346.2969 Q549.9536,345.7188 549.3599,345.4531 Q548.7661,345.1719 548.1411,345.1719 Q546.7974,345.1719 546.1099,346.25 Q545.4224,347.3125 545.4224,349.4063 Q545.4224,351.5 546.1099,352.5781 Q546.7974,353.6406 548.1411,353.6406 Q548.7661,353.6406 549.3599,353.375 Q549.9536,353.0938 550.5786,352.5156 L550.5786,355.2344 Z " fill="#000000"/><text fill="#333333" font-family="sans-serif" font-size="14" lengthAdjust="spacing" textLength="78.2305" x="568.1099" y="354.4404">Orcamento</text><line style="stroke:#A80036;stroke-width:0.5;" x1="368.5" x2="813.4502" y1="365.5938" y2="365.5938"/><text fill="#000000" font-family="sans-serif" font-size="14" lengthAdjust="spacing" textLength="45.2471" x="373.5" y="382.5889">-id: int</text><text fill="#000000" font-family="sans-serif" font-size="14" lengthAdjust="spacing" textLength="110.4277" x="373.5" y="398.8857">-cliente: Cliente</text><text fill="#000000" font-family="sans-serif" font-size="14" lengthAdjust="spacing" textLength="108.2197" x="373.5" y="415.1826">-imovel: Imovel</text><text fill="#000000" font-family="sans-serif" font-size="14" lengthAdjust="spacing" textLength="157.7803" x="373.5" y="431.4795">-parcelas_contrato: int</text><text fill="#000000" font-family="sans-serif" font-size="14" lengthAdjust="spacing" textLength="139.3506" x="373.5" y="447.7764">-valor_aluguel: float</text><text fill="#000000" font-family="sans-serif" font-size="14" lengthAdjust="spacing" textLength="151.7305" x="373.5" y="464.0732">-valor_desconto: float</text><text fill="#000000" font-family="sans-serif" font-size="14" lengthAdjust="spacing" textLength="176.5107" x="373.5" y="480.3701">-valor_aluguel_final: float</text><text fill="#000000" font-family="sans-serif" font-size="14" lengthAdjust="spacing" textLength="205.7617" x="373.5" y="496.667">-valor_parcela_contrato: float</text><text fill="#000000" font-family="sans-serif" font-size="14" lengthAdjust="spacing" textLength="119.7588" x="373.5" y="512.9639">-valor_total: float</text><line style="stroke:#A80036;stroke-width:1;" x1="368.5" x2="813.4502" y1="520.2656" y2="520.2656"/><text fill="#000000" font-family="sans-serif" font-size="14" lengthAdjust="spacing" textLength="434.9502" x="373.5" y="537.2607">+__init__(id: int, cliente: Cliente, imovel: Imovel, parcelas: int)</text><text fill="#000000" font-family="sans-serif" font-size="14" lengthAdjust="spacing" textLength="199.5068" x="373.5" y="553.5576">-_calcular_orcamento(): void</text><text fill="#000000" font-family="sans-serif" font-size="14" lengthAdjust="spacing" textLength="195.5215" x="373.5" y="569.8545">+calcular_orcamento(): dict</text><text fill="#000000" font-family="sans-serif" font-size="14" lengthAdjust="spacing" textLength="160.5078" x="373.5" y="586.1514">+exibir_resumo(): void</text><text fill="#000000" font-family="sans-serif" font-size="14" lengthAdjust="spacing" textLength="224.1025" x="373.5" y="602.4482">+get_valor_aluguel_final(): float</text><text fill="#000000" font-family="sans-serif" font-size="14" lengthAdjust="spacing" textLength="253.3535" x="373.5" y="618.7451">+get_valor_parcela_contrato(): float</text><text fill="#000000" font-family="sans-serif" font-size="14" lengthAdjust="spacing" textLength="167.3506" x="373.5" y="635.042">+get_valor_total(): float</text></g><!--class Contrato--><g class="entity" data-qualified-name="Entidades de Neg.cio.Contrato" data-source-line="138" id="ent0010"><rect fill="#FEFECE" height="227.2656" rx="2.5" ry="2.5" style="stroke:#A80036;stroke-width:0.5;" width="343.584" x="22" y="765.0938"/><ellipse cx="158.9956" cy="781.0938" fill="#ADD1B2" rx="11" ry="11" style="stroke:#181818;stroke-width:1;"/><path d="M161.9644,786.7344 Q161.3862,787.0313 160.7456,787.1719 Q160.105,787.3281 159.4019,787.3281 Q156.9019,787.3281 155.5737,785.6875 Q154.2612,784.0313 154.2612,780.9063 Q154.2612,777.7813 155.5737,776.125 Q156.9019,774.4688 159.4019,774.4688 Q160.105,774.4688 160.7456,774.625 Q161.4019,774.7813 161.9644,775.0781 L161.9644,777.7969 Q161.3394,777.2188 160.7456,776.9531 Q160.1519,776.6719 159.5269,776.6719 Q158.1831,776.6719 157.4956,777.75 Q156.8081,778.8125 156.8081,780.9063 Q156.8081,783 157.4956,784.0781 Q158.1831,785.1406 159.5269,785.1406 Q160.1519,785.1406 160.7456,784.875 Q161.3394,784.5938 161.9644,784.0156 L161.9644,786.7344 Z " fill="#000000"/><text fill="#333333" font-family="sans-serif" font-size="14" lengthAdjust="spacing" textLength="61.0928" x="179.4956" y="785.9404">Contrato</text><line style="stroke:#A80036;stroke-width:0.5;" x1="23" x2="364.584" y1="797.0938" y2="797.0938"/><text fill="#000000" font-family="sans-serif" font-size="14" lengthAdjust="spacing" text-decoration="underline" textLength="224.3965" x="28" y="814.0889">-VALOR_TOTAL: float = 2000.00</text><text fill="#000000" font-family="sans-serif" font-size="14" lengthAdjust="spacing" text-decoration="underline" textLength="172.8877" x="28" y="830.3857">-MAX_PARCELAS: int = 5</text><text fill="#000000" font-family="sans-serif" font-size="14" lengthAdjust="spacing" textLength="168.2256" x="28" y="846.6826">-orcamento: Orcamento</text><text fill="#000000" font-family="sans-serif" font-size="14" lengthAdjust="spacing" textLength="91.7656" x="28" y="862.9795">-parcelas: int</text><text fill="#000000" font-family="sans-serif" font-size="14" lengthAdjust="spacing" textLength="139.7471" x="28" y="879.2764">-valor_parcela: float</text><line style="stroke:#A80036;stroke-width:1;" x1="23" x2="364.584" y1="886.5781" y2="886.5781"/><text fill="#000000" font-family="sans-serif" font-size="14" lengthAdjust="spacing" textLength="331.584" x="28" y="903.5732">+__init__(orcamento: Orcamento, parcelas: int)</text><text fill="#000000" font-family="sans-serif" font-size="14" lengthAdjust="spacing" textLength="187.209" x="28" y="919.8701">-_validar_e_calcular(): void</text><text fill="#000000" font-family="sans-serif" font-size="14" lengthAdjust="spacing" textLength="175.8887" x="28" y="936.167">+validar_parcelas(): bool</text><text fill="#000000" font-family="sans-serif" font-size="14" lengthAdjust="spacing" textLength="177.2354" x="28" y="952.4639">+calcular_parcela(): float</text><text fill="#000000" font-family="sans-serif" font-size="14" lengthAdjust="spacing" textLength="139.3574" x="28" y="968.7607">+get_parcelas(): int</text><text fill="#000000" font-family="sans-serif" font-size="14" lengthAdjust="spacing" textLength="167.3506" x="28" y="985.0576">+get_valor_total(): float</text></g><!--class ProjecaoMensal--><g class="entity" data-qualified-name="Entidades de Neg.cio.ProjecaoMensal" data-source-line="156" id="ent0011"><rect fill="#FEFECE" height="162.0781" rx="2.5" ry="2.5" style="stroke:#A80036;stroke-width:0.5;" width="386.1445" x="398" y="94.5938"/><ellipse cx="532.104" cy="110.5938" fill="#ADD1B2" rx="11" ry="11" style="stroke:#181818;stroke-width:1;"/><path d="M535.0728,116.2344 Q534.4946,116.5313 533.854,116.6719 Q533.2134,116.8281 532.5103,116.8281 Q530.0103,116.8281 528.6821,115.1875 Q527.3696,113.5313 527.3696,110.4063 Q527.3696,107.2813 528.6821,105.625 Q530.0103,103.9688 532.5103,103.9688 Q533.2134,103.9688 533.854,104.125 Q534.5103,104.2813 535.0728,104.5781 L535.0728,107.2969 Q534.4478,106.7188 533.854,106.4531 Q533.2603,106.1719 532.6353,106.1719 Q531.2915,106.1719 530.604,107.25 Q529.9165,108.3125 529.9165,110.4063 Q529.9165,112.5 530.604,113.5781 Q531.2915,114.6406 532.6353,114.6406 Q533.2603,114.6406 533.854,114.375 Q534.4478,114.0938 535.0728,113.5156 L535.0728,116.2344 Z " fill="#000000"/><text fill="#333333" font-family="sans-serif" font-size="14" lengthAdjust="spacing" textLength="109.4365" x="552.604" y="115.4404">ProjecaoMensal</text><line style="stroke:#A80036;stroke-width:0.5;" x1="399" x2="783.1445" y1="126.5938" y2="126.5938"/><text fill="#000000" font-family="sans-serif" font-size="14" lengthAdjust="spacing" textLength="168.2256" x="404" y="143.5889">-orcamento: Orcamento</text><text fill="#000000" font-family="sans-serif" font-size="14" lengthAdjust="spacing" textLength="134.3262" x="404" y="159.8857">-contrato: Contrato</text><text fill="#000000" font-family="sans-serif" font-size="14" lengthAdjust="spacing" textLength="117.1201" x="404" y="176.1826">-meses: list[dict]</text><line style="stroke:#A80036;stroke-width:1;" x1="399" x2="783.1445" y1="183.4844" y2="183.4844"/><text fill="#000000" font-family="sans-serif" font-size="14" lengthAdjust="spacing" textLength="374.1445" x="404" y="200.4795">+__init__(orcamento: Orcamento, contrato: Contrato)</text><text fill="#000000" font-family="sans-serif" font-size="14" lengthAdjust="spacing" textLength="166.9131" x="404" y="216.7764">-_gerar_projecao(): void</text><text fill="#000000" font-family="sans-serif" font-size="14" lengthAdjust="spacing" textLength="194.4141" x="404" y="233.0732">+gerar_projecao(): list[dict]</text><text fill="#000000" font-family="sans-serif" font-size="14" lengthAdjust="spacing" textLength="278.8857" x="404" y="249.3701">+exportar_csv(nome_arquivo: str): void</text></g><g class="entity" data-qualified-name="GMN21" data-source-line="198" id="ent0022"><path d="M2161,1139.0938 L2161,1209.625 L2468.5332,1209.625 L2468.5332,1149.0938 L2458.5332,1139.0938 L2161,1139.0938" fill="#FFFFCC" style="stroke:#AAAAAA;stroke-width:0.5;"/><path d="M2458.5332,1139.0938 L2458.5332,1149.0938 L2468.5332,1149.0938 L2458.5332,1139.0938" fill="#FFFFCC" style="stroke:#AAAAAA;stroke-width:1;"/><text fill="#000000" font-family="sans-serif" font-size="13" lengthAdjust="spacing" textLength="209.7393" x="2167" y="1156.1606">Classe abstrata base para todos</text><text fill="#000000" font-family="sans-serif" font-size="13" lengthAdjust="spacing" textLength="222.187" x="2167" y="1171.2935">os tipos de im&#243;veis da imobili&#225;ria.</text><text fill="#000000" font-family="sans-serif" font-size="13" lengthAdjust="spacing" textLength="286.5332" x="2167" y="1186.4263">M&#233;todos abstratos definem comportamento</text><text fill="#000000" font-family="sans-serif" font-size="13" lengthAdjust="spacing" textLength="167.0576" x="2167" y="1201.5591">polim&#243;rfico para c&#225;lculos.</text></g><g class="entity" data-qualified-name="GMN24" data-source-line="205" id="ent0025"><path d="M1104,1326.0938 L1104,1411.7578 A0,0 0 0 0 1104,1411.7578 L1324.1704,1411.7578 A0,0 0 0 0 1324.1704,1411.7578 L1324.1704,1336.0938 L1314.1704,1326.0938 L1218,1326.0938 L1214,1255.8338 L1210,1326.0938 L1104,1326.0938 A0,0 0 0 0 1104,1326.0938" fill="#FFFFCC" style="stroke:#AAAAAA;stroke-width:0.5;"/><path d="M1314.1704,1326.0938 L1314.1704,1336.0938 L1324.1704,1336.0938 L1314.1704,1326.0938" fill="#FFFFCC" style="stroke:#AAAAAA;stroke-width:0.5;"/><text fill="#000000" font-family="sans-serif" font-size="13" lengthAdjust="spacing" textLength="125.417" x="1110" y="1343.1606">Regras de neg&#243;cio:</text><text fill="#000000" font-family="sans-serif" font-size="13" lengthAdjust="spacing" textLength="153.1499" x="1110" y="1358.2935">- Valor base: R$ 700,00</text><text fill="#000000" font-family="sans-serif" font-size="13" lengthAdjust="spacing" textLength="178.2168" x="1110" y="1373.4263">- Quarto extra: +R$ 200,00</text><text fill="#000000" font-family="sans-serif" font-size="13" lengthAdjust="spacing" textLength="179.9116" x="1110" y="1388.5591">- Vaga garagem: R$ 300,00</text><text fill="#000000" font-family="sans-serif" font-size="13" lengthAdjust="spacing" textLength="199.1704" x="1110" y="1403.6919">- Desconto: 5% (sem crian&#231;as)</text></g><g class="entity" data-qualified-name="GMN27" data-source-line="213" id="ent0028"><path d="M1500.5,1326.0938 L1500.5,1411.7578 A0,0 0 0 0 1500.5,1411.7578 L1701.4116,1411.7578 A0,0 0 0 0 1701.4116,1411.7578 L1701.4116,1336.0938 L1691.4116,1326.0938 L1605,1326.0938 L1601,1247.8238 L1597,1326.0938 L1500.5,1326.0938 A0,0 0 0 0 1500.5,1326.0938" fill="#FFFFCC" style="stroke:#AAAAAA;stroke-width:0.5;"/><path d="M1691.4116,1326.0938 L1691.4116,1336.0938 L1701.4116,1336.0938 L1691.4116,1326.0938" fill="#FFFFCC" style="stroke:#AAAAAA;stroke-width:0.5;"/><text fill="#000000" font-family="sans-serif" font-size="13" lengthAdjust="spacing" textLength="125.417" x="1506.5" y="1343.1606">Regras de neg&#243;cio:</text><text fill="#000000" font-family="sans-serif" font-size="13" lengthAdjust="spacing" textLength="153.1499" x="1506.5" y="1358.2935">- Valor base: R$ 900,00</text><text fill="#000000" font-family="sans-serif" font-size="13" lengthAdjust="spacing" textLength="178.2168" x="1506.5" y="1373.4263">- Quarto extra: +R$ 250,00</text><text fill="#000000" font-family="sans-serif" font-size="13" lengthAdjust="spacing" textLength="179.9116" x="1506.5" y="1388.5591">- Vaga garagem: R$ 300,00</text><text fill="#000000" font-family="sans-serif" font-size="13" lengthAdjust="spacing" textLength="101.2832" x="1506.5" y="1403.6919">- Sem desconto</text></g><g class="entity" data-qualified-name="GMN30" data-source-line="221" id="ent0031"><path d="M1862.5,1318.5938 L1862.5,1419.3906 A0,0 0 0 0 1862.5,1419.3906 L2075.1802,1419.3906 A0,0 0 0 0 2075.1802,1419.3906 L2075.1802,1328.5938 L2065.1802,1318.5938 L1973,1318.5938 L1969,1247.8238 L1965,1318.5938 L1862.5,1318.5938 A0,0 0 0 0 1862.5,1318.5938" fill="#FFFFCC" style="stroke:#AAAAAA;stroke-width:0.5;"/><path d="M2065.1802,1318.5938 L2065.1802,1328.5938 L2075.1802,1328.5938 L2065.1802,1318.5938" fill="#FFFFCC" style="stroke:#AAAAAA;stroke-width:0.5;"/><text fill="#000000" font-family="sans-serif" font-size="13" lengthAdjust="spacing" textLength="125.417" x="1868.5" y="1335.6606">Regras de neg&#243;cio:</text><text fill="#000000" font-family="sans-serif" font-size="13" lengthAdjust="spacing" textLength="165.5532" x="1868.5" y="1350.7935">- Valor base: R$ 1.200,00</text><text fill="#000000" font-family="sans-serif" font-size="13" lengthAdjust="spacing" textLength="122.9541" x="1868.5" y="1365.9263">- Sem quarto extra</text><text fill="#000000" font-family="sans-serif" font-size="13" lengthAdjust="spacing" textLength="191.6802" x="1868.5" y="1381.0591">- Vagas: R$ 250 (2 primeiras)</text><text fill="#000000" font-family="sans-serif" font-size="13" lengthAdjust="spacing" textLength="156.8379" x="1868.5" y="1396.1919">- Adicionais: R$ 60 cada</text><text fill="#000000" font-family="sans-serif" font-size="13" lengthAdjust="spacing" textLength="101.2832" x="1868.5" y="1411.3247">- Sem desconto</text></g><g class="entity" data-qualified-name="GMN33" data-source-line="230" id="ent0034"><path d="M2158,851.0938 L2158,906.4922 L2335.9077,906.4922 L2335.9077,861.0938 L2325.9077,851.0938 L2158,851.0938" fill="#FFFFCC" style="stroke:#AAAAAA;stroke-width:0.5;"/><path d="M2325.9077,851.0938 L2325.9077,861.0938 L2335.9077,861.0938 L2325.9077,851.0938" fill="#FFFFCC" style="stroke:#AAAAAA;stroke-width:1;"/><text fill="#000000" font-family="sans-serif" font-size="13" lengthAdjust="spacing" textLength="149.5762" x="2164" y="868.1606">Valor fixo: R$ 2.000,00</text><text fill="#000000" font-family="sans-serif" font-size="13" lengthAdjust="spacing" textLength="127.0801" x="2164" y="883.2935">M&#225;ximo: 5 parcelas</text><text fill="#000000" font-family="sans-serif" font-size="13" lengthAdjust="spacing" textLength="156.9077" x="2164" y="898.4263">C&#225;lculo: 2000 / parcelas</text></g><g class="entity" data-qualified-name="GMN36" data-source-line="236" id="ent0037"><path d="M850,460.5938 L850,515.9922 L1017.8276,515.9922 L1017.8276,470.5938 L1007.8276,460.5938 L850,460.5938" fill="#FFFFCC" style="stroke:#AAAAAA;stroke-width:0.5;"/><path d="M1007.8276,460.5938 L1007.8276,470.5938 L1017.8276,470.5938 L1007.8276,460.5938" fill="#FFFFCC" style="stroke:#AAAAAA;stroke-width:1;"/><text fill="#000000" font-family="sans-serif" font-size="13" lengthAdjust="spacing" textLength="146.8276" x="856" y="477.6606">Gera arquivo CSV com</text><text fill="#000000" font-family="sans-serif" font-size="13" lengthAdjust="spacing" textLength="143.6221" x="856" y="492.7935">12 meses de proje&#231;&#227;o</text><text fill="#000000" font-family="sans-serif" font-size="13" lengthAdjust="spacing" textLength="133.6563" x="856" y="507.9263">financeira completa.</text></g><!--reverse link Imovel to Apartamento--><g class="link" data-entity-1="ent0003" data-entity-2="ent0004" data-link-type="extension" data-source-line="173" id="lnk12"><path codeLine="173" d="M1288.3268,1032.6171 C1274.5168,1058.8171 1268.87,1069.5138 1256.38,1093.2038" fill="none" id="Imovel-backto-Apartamento" style="stroke:#555555;stroke-width:1;"/><polygon fill="none" points="1296.72,1016.6938,1283.019,1029.8194,1293.6346,1035.4149,1296.72,1016.6938" style="stroke:#555555;stroke-width:1;stroke-linejoin:miter;stroke-miterlimit:10;"/><text fill="#000000" font-family="sans-serif" font-size="13" lengthAdjust="spacing" textLength="37.8003" x="1278" y="1059.6606">herda</text></g><!--reverse link Imovel to Casa--><g class="link" data-entity-1="ent0003" data-entity-2="ent0005" data-link-type="extension" data-source-line="174" id="lnk13"><path codeLine="174" d="M1488.3392,1030.8251 C1511.3692,1060.0151 1523.67,1075.6038 1543.88,1101.2038" fill="none" id="Imovel-backto-Casa" style="stroke:#555555;stroke-width:1;"/><polygon fill="none" points="1477.19,1016.6938,1483.6287,1034.5415,1493.0497,1027.1087,1477.19,1016.6938" style="stroke:#555555;stroke-width:1;stroke-linejoin:miter;stroke-miterlimit:10;"/><text fill="#000000" font-family="sans-serif" font-size="13" lengthAdjust="spacing" textLength="37.8003" x="1513" y="1059.6606">herda</text></g><!--reverse link Imovel to Estudio--><g class="link" data-entity-1="ent0003" data-entity-2="ent0006" data-link-type="extension" data-source-line="175" id="lnk14"><path codeLine="175" d="M1625.7539,1005.4038 C1697.6339,1040.6238 1758.1,1070.2538 1822.06,1101.5938" fill="none" id="Imovel-backto-Estudio" style="stroke:#555555;stroke-width:1;"/><polygon fill="none" points="1609.59,997.4838,1623.1139,1010.7918,1628.394,1000.0158,1609.59,997.4838" style="stroke:#555555;stroke-width:1;stroke-linejoin:miter;stroke-miterlimit:10;"/><text fill="#000000" font-family="sans-serif" font-size="13" lengthAdjust="spacing" textLength="37.8003" x="1741" y="1059.6606">herda</text></g><!--link Imovel to Calculavel--><g class="link" data-entity-1="ent0003" data-entity-2="ent0002" data-link-type="extension" data-source-line="178" id="lnk15"><path codeLine="178" d="M1130.39,1016.8138 C1092.86,1041.0738 1055.2,1067.0938 1021,1093.5938 C1002.02,1108.3038 995.2266,1113.9852 979.9466,1129.4852" fill="none" id="Imovel-to-Calculavel" style="stroke:#555555;stroke-width:1;stroke-dasharray:7,7;"/><polygon fill="none" points="967.31,1142.3038,984.2195,1133.6974,975.6738,1125.273,967.31,1142.3038" style="stroke:#555555;stroke-width:1;stroke-linejoin:miter;stroke-miterlimit:10;"/><text fill="#000000" font-family="sans-serif" font-size="13" lengthAdjust="spacing" textLength="78.1016" x="1085" y="1059.6606">implementa</text></g><!--link Orcamento to Cliente--><g class="link" data-entity-1="ent0009" data-entity-2="ent0008" data-link-type="dependency" data-source-line="181" id="lnk16"><path codeLine="181" d="M598.11,642.6438 C600.42,692.4838 602.6787,741.0691 604.6887,784.4691" fill="none" id="Orcamento-to-Cliente" style="stroke:#555555;stroke-width:1;"/><polygon fill="#555555" points="604.92,789.4638,608.4993,780.2883,604.6887,784.4691,600.5079,780.6584,604.92,789.4638" style="stroke:#555555;stroke-width:1;stroke-linejoin:miter;stroke-miterlimit:10;"/><text fill="#000000" font-family="sans-serif" font-size="13" lengthAdjust="spacing" textLength="38.9619" x="601" y="685.6606">utiliza</text><text fill="#000000" font-family="sans-serif" font-size="13" lengthAdjust="spacing" textLength="8.271" x="590.2684" y="662.5692">1</text><text fill="#000000" font-family="sans-serif" font-size="13" lengthAdjust="spacing" textLength="8.271" x="596.2418" y="778.5184">1</text></g><!--link Orcamento to Imovel--><g class="link" data-entity-1="ent0009" data-entity-2="ent0003" data-link-type="dependency" data-source-line="184" id="lnk17"><path codeLine="184" d="M814.76,632.6738 C820.87,636.0638 826.96,639.3838 833,642.5938 C927.28,692.7938 1029.9192,739.426 1123.5692,779.276" fill="none" id="Orcamento-to-Imovel" style="stroke:#555555;stroke-width:1;"/><polygon fill="#555555" points="1128.17,781.2338,1121.4548,774.0292,1123.5692,779.276,1118.3224,781.3905,1128.17,781.2338" style="stroke:#555555;stroke-width:1;stroke-linejoin:miter;stroke-miterlimit:10;"/><text fill="#000000" font-family="sans-serif" font-size="13" lengthAdjust="spacing" textLength="66.2251" x="919" y="685.6606">referencia</text><text fill="#000000" font-family="sans-serif" font-size="13" lengthAdjust="spacing" textLength="8.271" x="822.2386" y="634.2449">1</text><text fill="#000000" font-family="sans-serif" font-size="13" lengthAdjust="spacing" textLength="8.271" x="1112.1393" y="774.8595">1</text></g><!--reverse link Orcamento to Contrato--><g class="link" data-entity-1="ent0009" data-entity-2="ent0010" data-link-type="composition" data-source-line="187" id="lnk18"><path codeLine="187" d="M425.5217,651.035 C383.7917,691.855 348.09,726.8038 309.06,765.0038" fill="none" id="Orcamento-backto-Contrato" style="stroke:#555555;stroke-width:1;"/><polygon fill="#555555" points="434.1,642.6438,427.0138,643.9799,425.5217,651.035,432.6079,649.6988,434.1,642.6438" style="stroke:#555555;stroke-width:1;stroke-linejoin:miter;stroke-miterlimit:10;"/><text fill="#000000" font-family="sans-serif" font-size="13" lengthAdjust="spacing" textLength="49.0991" x="393" y="685.6606">cont&#233;m</text><text fill="#000000" font-family="sans-serif" font-size="13" lengthAdjust="spacing" textLength="8.271" x="418.3142" y="662.5692">1</text><text fill="#000000" font-family="sans-serif" font-size="13" lengthAdjust="spacing" textLength="8.271" x="308.5449" y="753.9304">1</text></g><!--reverse link ProjecaoMensal to Orcamento--><g class="link" data-entity-1="ent0011" data-entity-2="ent0009" data-link-type="composition" data-source-line="190" id="lnk19"><path codeLine="190" d="M591,268.9637 C591,292.4938 591,307.0538 591,333.5538" fill="none" id="ProjecaoMensal-backto-Orcamento" style="stroke:#555555;stroke-width:1;"/><polygon fill="#555555" points="591,256.9637,587,262.9637,591,268.9637,595,262.9637,591,256.9637" style="stroke:#555555;stroke-width:1;stroke-linejoin:miter;stroke-miterlimit:10;"/><text fill="#000000" font-family="sans-serif" font-size="13" lengthAdjust="spacing" textLength="38.9619" x="592" y="299.6606">utiliza</text><text fill="#000000" font-family="sans-serif" font-size="13" lengthAdjust="spacing" textLength="8.271" x="582.6617" y="276.6703">1</text><text fill="#000000" font-family="sans-serif" font-size="13" lengthAdjust="spacing" textLength="8.271" x="582.802" y="322.2753">1</text></g><!--reverse link ProjecaoMensal to Contrato--><g class="link" data-entity-1="ent0011" data-entity-2="ent0010" data-link-type="composition" data-source-line="191" id="lnk20"><path codeLine="191" d="M387.8164,261.5852 C354.3864,282.7152 333.14,302.2338 310,333.5938 C216.4,460.4438 195,646.7338 191.79,765.0638" fill="none" id="ProjecaoMensal-backto-Contrato" style="stroke:#555555;stroke-width:1;"/><polygon fill="#555555" points="397.96,255.1737,390.751,254.9983,387.8164,261.5852,395.0253,261.7607,397.96,255.1737" style="stroke:#555555;stroke-width:1;stroke-linejoin:miter;stroke-miterlimit:10;"/><text fill="#000000" font-family="sans-serif" font-size="13" lengthAdjust="spacing" textLength="38.9619" x="311" y="492.6606">utiliza</text><text fill="#000000" font-family="sans-serif" font-size="13" lengthAdjust="spacing" textLength="8.271" x="381.65" y="255.2827">1</text><text fill="#000000" font-family="sans-serif" font-size="13" lengthAdjust="spacing" textLength="8.271" x="183.3958" y="753.9945">1</text></g><!--link Imovel to GMN21--><g class="link" data-entity-1="ent0003" data-entity-2="ent0022" data-link-type="association" data-source-line="198" id="lnk23"><path d="M1609.85,935.5038 C1764,973.9137 1967.15,1029.4538 2142,1093.5938 C2177.42,1106.5838 2215.6,1123.8738 2247.05,1139.0538" fill="none" id="Imovel-GMN21" style="stroke:#555555;stroke-width:1;stroke-dasharray:7,7;"/></g><!--link Contrato to GMN33--><g class="link" data-entity-1="ent0010" data-entity-2="ent0034" data-link-type="association" data-source-line="230" id="lnk35"><path d="M276.46,764.9938 C310.48,727.4238 353.28,690.1338 401.5,670.0938 C445.7,651.7238 2082.54,647.0638 2124.5,670.0938 C2194.06,708.2738 2227.68,803.7238 2240.51,851.0738" fill="none" id="Contrato-GMN33" style="stroke:#555555;stroke-width:1;stroke-dasharray:7,7;"/></g><!--link ProjecaoMensal to GMN36--><g class="link" data-entity-1="ent0011" data-entity-2="ent0037" data-link-type="association" data-source-line="236" id="lnk38"><path d="M735.94,256.7238 C769.86,279.1138 804.4,305.1837 833,333.5938 C871.81,372.1537 903.95,427.9438 920.94,460.5638" fill="none" id="ProjecaoMensal-GMN36" style="stroke:#555555;stroke-width:1;stroke-dasharray:7,7;"/></g><?plantuml-src vLbVRzis47_tfo2o3N5MEtEIfUkCjO3cE9a0Eqvj9oYm3G8ZCIvNINGfEWlQvc5FUzg72FPGz65FnJw1ljYE56LHilo_0mPC2H17z-FnUFVZtP7UHK_NU2gxQ60FXkskXKxQgDUFVxUwxVDXJ_vdTIxFBjiTL4Tsj_UztR7Zt_gsXVhxNHXrGl68um0ZZw2MZwE8H03iCe_uU4G2r8v4_22eYm6xba60Rx7mXeuc7CVluxz1Bqn18a5zLebUqN2COLxaoZaj8JYzdWXYkomSq3S4DOgGKnOA9JdukapKOZxZwBCZzHG1tsFtrOYpIUXfs6dxjDrgpy0OzmZN4Ej9et7qs81WpjclMdYi7aCuXXd0NJCJjP_87mCOCZ6BEeMdrIgYSjQefx9k37RHXTNg3TlD9A1CHk241V5V8MNhwj9BH3kpgdRGsqe5mREBwYi-6cw7Wl0Rx0BtiEzEV7nB_4qqqH8zO1JIpoFa9gzvTQ-9Rdo6XPBTRsXsib6GTHq9ZWL6Ti0sD1mh5Qv86AWL6PRN4VMQSdd66q77h8bWdF7k5WDFd6iS4NDzYUpr18U2UjWZ3dpaWaL5ZGRY5ezmKLut7EauDAJ2SQhQhbfcJctMYXeoPvI0LFkUeVDjweNxQPmSx4z64-BdupKVhXGl0O-1k0xmH7l18NSWa6Ek6VED8ICY7Ef9WUc5vBrSh9IOtayasThBp928sJYKpr6CXedQbh6GNmGEI2ZO9deIaXfASaoziZgzllFyqkeFUqxxnR1lQJ-Wf-YmqTXlD6R0LzQP0JegW1RppcGM33umsGN_D_PAjlyYMYtdqge4cchoI0G5JR3gc4NHX3ekfpXqfOronATCHIqSuSqZAaUl7ihZ_qKejmm8z4qJZswnoxI2ah18Jm-SYxxTRTjzQx1IP1phn6xPlNEhay4VhnEY_q90xhTeWDewfQekz9oCue_k5ZrGgRRDsw1q4_iKaYhPOXyd2fRq3o4BIB5_A4rGgt9Zgh1MhWSOSuhzY9Yi8IyTufCHXNOdIvFhrM8vRNajBbZnAVTrZxlRri-fYYLnSfDeDdEyq63L9pRDnbF74NCNJcwH8nqAlIahAatQ5BrLPtl5H9m6P9vS3tTkQ8ZdAj6c69QKumGJ9KeMCwxecbh18xMf8mhDPXqvqrp4qZX8VjmowfKbh1p8ewv9Gd97hobtE8acGPcIh2tCEMnUVrZkjiLevRnFUgXfwNcto49QGuxURoE11NNlTKqQzePcAOBsi52wflYkzSAviFgjTaUMkgJ-71l0QO2QXRsPtn3b-q1BLsDVsKoBY0PJG97W3d7CqsU18oaeLREedTIOUOmmLSncot-BBnUS_K9SpBeaZB2_EMloUdBSMHBYBC7ak9i80n8HY8rF8_6ZtBu_RnJasIboaHuHBiEZLr2Q2Og04eDaGXapE5fnnurkgxAyEPY_dj3Rv7njgjsi6Uh39b9TeBeR76nmfVS3B2ICt-CqqQBu0-m0AjiWurXOIquKMHUimT-zgzTpnyScUacuXtDoDRHCa7R4gGpCiOEnJwGgUSNu9vjQHQVlpOibBTpVV_VCl2Tg6d2fr8eYvj9KOrQj9s1Nsc5L3-J6n-XWhv81TWvsW5NFrDyKs4GJGNtwPgbcRTnInHhNH9pS44v2q9VSjGRGzL2jUfg28Jokai1du9QnV_BQlmJ_AhFJWKt5-VX3CAkyi5EpAN1-2cGKay8OSyeCd_bg0TomqF3icXlX7ChF0BLVN7JibZMqhwprzuAyeuLCBGGB4Bl9EZ6T5d5wDoXlX9AG2kQn210iKdTcwkn0W_ZZBQ7m6SiMvXeM53z0sxeFk6xyGGr9TQaHq46G876uSPCpPhxKn6-eovB9tFX14fn5-nKIUkf6USRc_6rGdumuLaQ5-a3JhAX3f2mSABdKwt-ElcaqQgfIrz5pTLH3wgZMH8z0U9W9h-2aXqPWoeW4Qk1H9ZkPzfV7Nw1g91SaMtN8Az7UV7Fr7SUATdwxqCxZbUmSW6LfBppVhkoelw9f1_k7-JbU6mPEZOeK5Yn5rKCqvZGWb4l_IBa5bOEo4DC4zBW1JOA7bzhCwUYbKAxC2cLYsmszOybyq8Pfsxhnmnrm4e8qRN8alpMncgffGrzbihaEccaHpg2A85tQK6jm9VaChmyEat8j7QXgfKeu891jS-ZAzIlc-qHWazPhR_zX_CVmijD39_1hMsTzgskjgqHGuPCvtvuDeBQJv6MF0wcJx2PBP78Ca5-z_HJQndQNRyg_TaFLYrvlh_8F?></g></svg>